<svg xmlns="http://www.w3.org/2000/svg" width="960" height="540" viewBox="0 0 960 540" role="img" aria-labelledby="title">
  <title id="title">石头下面为什么住着小动物？</title>
  <rect width="960" height="540" fill="#f4f5d7"/>
  <path d="M0,430 Q180,370 340,430 T680,430 T1020,430 V540 H0 Z" fill="#6d913d" opacity="0.13"/>
  <g opacity="0.38"><circle cx="74" cy="446" r="8" fill="#db704d" stroke="none" stroke-width="0"/><circle cx="619" cy="289" r="13" fill="#db704d" stroke="none" stroke-width="0"/><circle cx="131" cy="347" r="13" fill="#db704d" stroke="none" stroke-width="0"/><circle cx="259" cy="414" r="11" fill="#db704d" stroke="none" stroke-width="0"/><circle cx="550" cy="185" r="13" fill="#f4c84a" stroke="none" stroke-width="0"/><circle cx="876" cy="95" r="8" fill="#db704d" stroke="none" stroke-width="0"/><circle cx="892" cy="457" r="9" fill="#db704d" stroke="none" stroke-width="0"/><circle cx="584" cy="302" r="6" fill="#f4c84a" stroke="none" stroke-width="0"/><circle cx="396" cy="130" r="13" fill="#f4c84a" stroke="none" stroke-width="0"/><circle cx="591" cy="142" r="12" fill="#db704d" stroke="none" stroke-width="0"/></g>
  <g><ellipse cx="480" cy="300.0" rx="70.0" ry="105.0" fill="#6d913d" stroke="#344525" stroke-width="7"/><circle cx="480" cy="192.0" r="42.0" fill="#db704d" stroke="#344525" stroke-width="7"/><line x1="425.0" y1="250.0" x2="350.0" y2="225.0" stroke="#344525" stroke-width="8" stroke-linecap="round"/><line x1="535.0" y1="250.0" x2="610.0" y2="225.0" stroke="#344525" stroke-width="8" stroke-linecap="round"/><line x1="425.0" y1="297.0" x2="350.0" y2="297.0" stroke="#344525" stroke-width="8" stroke-linecap="round"/><line x1="535.0" y1="297.0" x2="610.0" y2="297.0" stroke="#344525" stroke-width="8" stroke-linecap="round"/><line x1="425.0" y1="344.0" x2="350.0" y2="369.0" stroke="#344525" stroke-width="8" stroke-linecap="round"/><line x1="535.0" y1="344.0" x2="610.0" y2="369.0" stroke="#344525" stroke-width="8" stroke-linecap="round"/><path d="M460.0,160.0 Q425.0,105.0 390.0,130.0" fill="none" stroke="#344525" stroke-width="6" stroke-linecap="round" stroke-linejoin="round"/><path d="M500.0,160.0 Q535.0,105.0 570.0,130.0" fill="none" stroke="#344525" stroke-width="6" stroke-linecap="round" stroke-linejoin="round"/></g>
  <rect x="12" y="12" width="936" height="516" rx="30" fill="none" stroke="#344525" stroke-width="5" opacity="0.18"/>
</svg>
