<svg xmlns="http://www.w3.org/2000/svg" width="960" height="540" viewBox="0 0 960 540" role="img" aria-labelledby="title">
  <title id="title">空气明明看不见，怎么知道它在？</title>
  <rect width="960" height="540" fill="#e2f6f3"/>
  <path d="M0,430 Q180,370 340,430 T680,430 T1020,430 V540 H0 Z" fill="#177f87" opacity="0.13"/>
  <g opacity="0.38"><circle cx="626" cy="236" r="8" fill="#ef7d63" stroke="none" stroke-width="0"/><circle cx="524" cy="282" r="12" fill="#ffffff" stroke="none" stroke-width="0"/><circle cx="449" cy="247" r="14" fill="#ef7d63" stroke="none" stroke-width="0"/><circle cx="269" cy="288" r="11" fill="#ffffff" stroke="none" stroke-width="0"/><circle cx="700" cy="298" r="7" fill="#ffffff" stroke="none" stroke-width="0"/><circle cx="223" cy="405" r="10" fill="#ffffff" stroke="none" stroke-width="0"/><circle cx="551" cy="385" r="14" fill="#ef7d63" stroke="none" stroke-width="0"/><circle cx="104" cy="380" r="5" fill="#ef7d63" stroke="none" stroke-width="0"/><circle cx="516" cy="271" r="11" fill="#ffffff" stroke="none" stroke-width="0"/><circle cx="641" cy="106" r="5" fill="#ef7d63" stroke="none" stroke-width="0"/></g>
  <g><circle cx="419.5" cy="210" r="46.2" fill="#ffffff" stroke="none" stroke-width="0"/><circle cx="480" cy="181.4" r="66.0" fill="#ffffff" stroke="none" stroke-width="0"/><circle cx="546.0" cy="210" r="49.50000000000001" fill="#ffffff" stroke="none" stroke-width="0"/><rect x="375.5" y="210" width="209.00000000000003" height="52.800000000000004" rx="26.400000000000002" fill="#ffffff" stroke="none" stroke-width="0"/><path d="M389.8,249.6 H570.2" fill="none" stroke="#213b4a" stroke-width="5" stroke-linecap="round" stroke-linejoin="round"/><path d="M245,345 Q340,300 430,345 T625,345 T780,345" fill="none" stroke="#177f87" stroke-width="18" stroke-linecap="round" stroke-linejoin="round"/></g>
  <rect x="12" y="12" width="936" height="516" rx="30" fill="none" stroke="#213b4a" stroke-width="5" opacity="0.18"/>
</svg>
