<svg xmlns="http://www.w3.org/2000/svg" width="960" height="540" viewBox="0 0 960 540" role="img" aria-labelledby="title">
  <title id="title">一根根线怎样变成布？</title>
  <rect width="960" height="540" fill="#f8eadf"/>
  <path d="M0,430 Q180,370 340,430 T680,430 T1020,430 V540 H0 Z" fill="#a84f45" opacity="0.13"/>
  <g opacity="0.38"><circle cx="579" cy="315" r="11" fill="#e0a63f" stroke="none" stroke-width="0"/><circle cx="280" cy="91" r="6" fill="#e0a63f" stroke="none" stroke-width="0"/><circle cx="566" cy="80" r="14" fill="#3f7692" stroke="none" stroke-width="0"/><circle cx="583" cy="65" r="8" fill="#3f7692" stroke="none" stroke-width="0"/><circle cx="421" cy="280" r="9" fill="#e0a63f" stroke="none" stroke-width="0"/><circle cx="359" cy="295" r="10" fill="#3f7692" stroke="none" stroke-width="0"/><circle cx="83" cy="94" r="9" fill="#e0a63f" stroke="none" stroke-width="0"/><circle cx="332" cy="325" r="15" fill="#e0a63f" stroke="none" stroke-width="0"/><circle cx="624" cy="155" r="14" fill="#e0a63f" stroke="none" stroke-width="0"/><circle cx="575" cy="439" r="12" fill="#e0a63f" stroke="none" stroke-width="0"/></g>
  <g><rect x="310" y="145" width="340" height="250" rx="28" fill="#e0a63f" stroke="#4b3734" stroke-width="9"/><path d="M330,340 L430,240 L510,315 L590,190 L635,330" fill="none" stroke="#a84f45" stroke-width="18" stroke-linecap="round" stroke-linejoin="round"/><circle cx="415" cy="210" r="32" fill="#3f7692" stroke="none" stroke-width="0"/></g>
  <rect x="12" y="12" width="936" height="516" rx="30" fill="none" stroke="#4b3734" stroke-width="5" opacity="0.18"/>
</svg>
