<svg xmlns="http://www.w3.org/2000/svg" width="1200" height="680" viewBox="0 0 1200 680" role="img" aria-labelledby="title desc">
  <title id="title">原理图：刀刃为什么要做成尖尖的？</title>
  <desc id="desc">同样的力集中在较小刃口面积上会产生较大压力，使材料更容易分开。</desc>
  <defs>
    <marker id="arrow" markerWidth="10" markerHeight="10" refX="8" refY="3" orient="auto" markerUnits="strokeWidth"><path d="M0,0 L0,6 L9,3 z" fill="#4b342d"/></marker>
  </defs>
  <rect width="1200" height="680" fill="#fff5ea"/>
  <path d="M0,615 Q260,560 520,615 T1040,615 T1300,615 V680 H0 Z" fill="#cf663f" opacity="0.09"/>
  <text x="65" y="64" fill="#4b342d" font-family="system-ui, PingFang SC, Noto Sans CJK SC, sans-serif" font-size="30" font-weight="750">过程图</text>
  <text x="1135" y="64" text-anchor="end" fill="#4b342d" opacity="0.72" font-family="system-ui, PingFang SC, Noto Sans CJK SC, sans-serif" font-size="21">示意图 · 不按比例</text>
  <rect x="77.5" y="140.0" width="265" height="390" rx="8" fill="#ffffff" stroke="#4b342d" stroke-width="2.5"/><circle cx="210" cy="254.76" r="23.400000000000002" fill="#397e8d" stroke="#4b342d" stroke-width="3.12"/><line x1="210" y1="280.5" x2="210" y2="337.44" stroke="#4b342d" stroke-width="7.800000000000001" stroke-linecap="round"/><line x1="210" y1="300" x2="169.44" y2="323.4" stroke="#cf663f" stroke-width="7.0200000000000005" stroke-linecap="round"/><line x1="210" y1="300" x2="250.56" y2="319.5" stroke="#cf663f" stroke-width="7.0200000000000005" stroke-linecap="round"/><line x1="210" y1="337.44" x2="177.24" y2="378.0" stroke="#4b342d" stroke-width="7.800000000000001" stroke-linecap="round"/><line x1="210" y1="337.44" x2="247.44" y2="374.1" stroke="#4b342d" stroke-width="7.800000000000001" stroke-linecap="round"/><text x="210" y="440" text-anchor="middle" fill="#4b342d" font-family="system-ui, PingFang SC, Noto Sans CJK SC, sans-serif" font-size="26" font-weight="650"><tspan x="210" dy="0">手施加同样的力</tspan></text><rect x="467.5" y="140.0" width="265" height="390" rx="8" fill="#ffffff" stroke="#4b342d" stroke-width="2.5"/><polygon points="584.4,229.8 646.8,366.3 553.2,366.3" fill="#397e8d" stroke="#4b342d" stroke-width="3.9000000000000004" stroke-linejoin="round"/><text x="600" y="440" text-anchor="middle" fill="#4b342d" font-family="system-ui, PingFang SC, Noto Sans CJK SC, sans-serif" font-size="26" font-weight="650"><tspan x="600" dy="0">窄刃口产生</tspan><tspan x="600" dy="34">较大压力</tspan></text><rect x="857.5" y="140.0" width="265" height="390" rx="8" fill="#ffffff" stroke="#4b342d" stroke-width="2.5"/><path d="M912.0,319.5 Q978.3,239.16 1056.3,293.76" fill="none" stroke="#cf663f" stroke-width="8.58" stroke-linecap="round" stroke-linejoin="round" marker-end="url(#arrow)"/><circle cx="933.84" cy="314.04" r="18.72" fill="#397e8d" stroke="#4b342d" stroke-width="3.12"/><text x="990" y="440" text-anchor="middle" fill="#4b342d" font-family="system-ui, PingFang SC, Noto Sans CJK SC, sans-serif" font-size="26" font-weight="650"><tspan x="990" dy="0">材料被推向两侧</tspan></text><line x1="352" y1="335" x2="452" y2="335" stroke="#cf663f" stroke-width="9" stroke-linecap="round" marker-end="url(#arrow)"/><line x1="742" y1="335" x2="842" y2="335" stroke="#397e8d" stroke-width="9" stroke-linecap="round" marker-end="url(#arrow)"/>
  <rect x="12" y="12" width="1176" height="656" rx="8" fill="none" stroke="#4b342d" stroke-width="3" opacity="0.22"/>
</svg>
