<svg xmlns="http://www.w3.org/2000/svg" width="1200" height="680" viewBox="0 0 1200 680" role="img" aria-labelledby="title desc">
  <title id="title">原理图：壁虎为什么能爬墙？</title>
  <desc id="desc">脚趾上的刚毛继续分叉成极细末端，增大与墙面的近距离接触。</desc>
  <defs>
    <marker id="arrow" markerWidth="10" markerHeight="10" refX="8" refY="3" orient="auto" markerUnits="strokeWidth"><path d="M0,0 L0,6 L9,3 z" fill="#4b3326"/></marker>
  </defs>
  <rect width="1200" height="680" fill="#fff6e9"/>
  <path d="M0,615 Q260,560 520,615 T1040,615 T1300,615 V680 H0 Z" fill="#d0713d" opacity="0.09"/>
  <text x="65" y="64" fill="#4b3326" font-family="system-ui, PingFang SC, Noto Sans CJK SC, sans-serif" font-size="30" font-weight="750">结构图</text>
  <text x="1135" y="64" text-anchor="end" fill="#4b3326" opacity="0.72" font-family="system-ui, PingFang SC, Noto Sans CJK SC, sans-serif" font-size="21">示意图 · 不按比例</text>
  <ellipse cx="480" cy="335" rx="255" ry="190" fill="#fff6e9" stroke="#4b3326" stroke-width="4"/><ellipse cx="480" cy="335" rx="180" ry="132" fill="#ffffff" stroke="#d0713d" stroke-width="4"/><ellipse cx="480" cy="335" rx="105" ry="78" fill="#fff6e9" stroke="#4e8a72" stroke-width="4"/><ellipse cx="480" cy="335" rx="31.2" ry="42.0" fill="#d0713d" stroke="#4b3326" stroke-width="3.0"/><path d="M462.45,314.0 Q441.0,272.0 441.0,260.0" fill="none" stroke="#4e8a72" stroke-width="7.8" stroke-linecap="round" stroke-linejoin="round"/><path d="M471.36,314.0 Q460.8,272.0 460.8,260.0" fill="none" stroke="#4e8a72" stroke-width="6.6" stroke-linecap="round" stroke-linejoin="round"/><path d="M480.0,314.0 Q480.0,272.0 480.0,260.0" fill="none" stroke="#4e8a72" stroke-width="7.8" stroke-linecap="round" stroke-linejoin="round"/><path d="M488.64,314.0 Q499.2,272.0 499.2,260.0" fill="none" stroke="#4e8a72" stroke-width="6.6" stroke-linecap="round" stroke-linejoin="round"/><path d="M497.55,314.0 Q519.0,272.0 519.0,260.0" fill="none" stroke="#4e8a72" stroke-width="7.8" stroke-linecap="round" stroke-linejoin="round"/><line x1="650" y1="250" x2="795" y2="190" stroke="#4b3326" stroke-width="4" stroke-linecap="round"/><text x="815" y="182" text-anchor="start" fill="#4b3326" font-family="system-ui, PingFang SC, Noto Sans CJK SC, sans-serif" font-size="25" font-weight="650"><tspan x="815" dy="0">壁虎脚趾</tspan></text><line x1="590" y1="298" x2="795" y2="315" stroke="#d0713d" stroke-width="4" stroke-linecap="round"/><text x="815" y="307" text-anchor="start" fill="#4b3326" font-family="system-ui, PingFang SC, Noto Sans CJK SC, sans-serif" font-size="25" font-weight="650"><tspan x="815" dy="0">大量细小刚毛</tspan></text><line x1="530" y1="346" x2="795" y2="440" stroke="#4e8a72" stroke-width="4" stroke-linecap="round"/><text x="815" y="432" text-anchor="start" fill="#4b3326" font-family="system-ui, PingFang SC, Noto Sans CJK SC, sans-serif" font-size="25" font-weight="650"><tspan x="815" dy="0">微弱分子吸引相加</tspan></text><text x="480" y="575" text-anchor="middle" fill="#4b3326" font-family="system-ui, PingFang SC, Noto Sans CJK SC, sans-serif" font-size="23" font-weight="500"><tspan x="480" dy="0">由外到内或由</tspan><tspan x="480" dy="31">整体到细部</tspan></text>
  <rect x="12" y="12" width="1176" height="656" rx="8" fill="none" stroke="#4b3326" stroke-width="3" opacity="0.22"/>
</svg>
