<svg xmlns="http://www.w3.org/2000/svg" width="1200" height="680" viewBox="0 0 1200 680" role="img" aria-labelledby="title desc">
  <title id="title">原理图：蜥蜴断尾后为什么还能动？</title>
  <desc id="desc">尾巴从预设薄弱处断开后，局部神经和肌肉仍能短时活动，吸引捕食者。</desc>
  <defs>
    <marker id="arrow" markerWidth="10" markerHeight="10" refX="8" refY="3" orient="auto" markerUnits="strokeWidth"><path d="M0,0 L0,6 L9,3 z" fill="#4b3326"/></marker>
  </defs>
  <rect width="1200" height="680" fill="#fff6e9"/>
  <path d="M0,615 Q260,560 520,615 T1040,615 T1300,615 V680 H0 Z" fill="#d0713d" opacity="0.09"/>
  <text x="65" y="64" fill="#4b3326" font-family="system-ui, PingFang SC, Noto Sans CJK SC, sans-serif" font-size="30" font-weight="750">过程图</text>
  <text x="1135" y="64" text-anchor="end" fill="#4b3326" opacity="0.72" font-family="system-ui, PingFang SC, Noto Sans CJK SC, sans-serif" font-size="21">示意图 · 不按比例</text>
  <rect x="77.5" y="140.0" width="265" height="390" rx="8" fill="#ffffff" stroke="#4b3326" stroke-width="2.5"/><ellipse cx="186.6" cy="300" rx="37.44" ry="19.5" fill="#d0713d" stroke="#4b3326" stroke-width="3.12"/><circle cx="149.16" cy="296.88" r="16.38" fill="#4e8a72" stroke="#4b3326" stroke-width="3.12"/><path d="M221.7,300 Q252.9,282.84 273.96,309.36 Q288.0,326.52 297.36,309.36" fill="none" stroke="#d0713d" stroke-width="10.14" stroke-linecap="round" stroke-linejoin="round"/><line x1="174.9" y1="314.04" x2="160.86" y2="340.56" stroke="#4b3326" stroke-width="3.12" stroke-linecap="round"/><line x1="174.9" y1="285.96" x2="160.86" y2="259.44" stroke="#4b3326" stroke-width="3.12" stroke-linecap="round"/><line x1="202.2" y1="314.04" x2="188.16" y2="340.56" stroke="#4b3326" stroke-width="3.12" stroke-linecap="round"/><line x1="202.2" y1="285.96" x2="188.16" y2="259.44" stroke="#4b3326" stroke-width="3.12" stroke-linecap="round"/><line x1="242.76" y1="286.74" x2="248.22" y2="314.04" stroke="#4b3326" stroke-width="2.34" stroke-linecap="round" stroke-dasharray="6 5"/><text x="210" y="440" text-anchor="middle" fill="#4b3326" font-family="system-ui, PingFang SC, Noto Sans CJK SC, sans-serif" font-size="26" font-weight="650"><tspan x="210" dy="0">尾部在特定</tspan><tspan x="210" dy="34">位置断开</tspan></text><rect x="467.5" y="140.0" width="265" height="390" rx="8" fill="#ffffff" stroke="#4b3326" stroke-width="2.5"/><path d="M537.6,337.44 Q584.4,237.6 656.16,282.84 Q627.3,356.16 537.6,337.44 Z" fill="#4e8a72" stroke="#4b3326" stroke-width="3.9000000000000004" stroke-linecap="round" stroke-linejoin="round"/><line x1="528.24" y1="345.24" x2="557.1" y2="327.3" stroke="#4b3326" stroke-width="6.24" stroke-linecap="round"/><line x1="656.16" y1="282.84" x2="681.9" y2="264.9" stroke="#4b3326" stroke-width="6.24" stroke-linecap="round"/><text x="600" y="440" text-anchor="middle" fill="#4b3326" font-family="system-ui, PingFang SC, Noto Sans CJK SC, sans-serif" font-size="26" font-weight="650"><tspan x="600" dy="0">局部神经肌</tspan><tspan x="600" dy="34">肉继续活动</tspan></text><rect x="857.5" y="140.0" width="265" height="390" rx="8" fill="#ffffff" stroke="#4b3326" stroke-width="2.5"/><path d="M912.0,319.5 Q978.3,239.16 1056.3,293.76" fill="none" stroke="#d0713d" stroke-width="8.58" stroke-linecap="round" stroke-linejoin="round" marker-end="url(#arrow)"/><circle cx="933.84" cy="314.04" r="18.72" fill="#4e8a72" stroke="#4b3326" stroke-width="3.12"/><text x="990" y="440" text-anchor="middle" fill="#4b3326" font-family="system-ui, PingFang SC, Noto Sans CJK SC, sans-serif" font-size="26" font-weight="650"><tspan x="990" dy="0">蜥蜴趁机逃离</tspan></text><line x1="352" y1="335" x2="452" y2="335" stroke="#d0713d" stroke-width="9" stroke-linecap="round" marker-end="url(#arrow)"/><line x1="742" y1="335" x2="842" y2="335" stroke="#4e8a72" stroke-width="9" stroke-linecap="round" marker-end="url(#arrow)"/>
  <rect x="12" y="12" width="1176" height="656" rx="8" fill="none" stroke="#4b3326" stroke-width="3" opacity="0.22"/>
</svg>
