<svg xmlns="http://www.w3.org/2000/svg" width="1200" height="680" viewBox="0 0 1200 680" role="img" aria-labelledby="title desc">
  <title id="title">原理图：灯为什么要接成一个圈才亮？</title>
  <desc id="desc">电池、导线和灯形成闭合路径后，电荷可以持续移动并传递能量。</desc>
  <defs>
    <marker id="arrow" markerWidth="10" markerHeight="10" refX="8" refY="3" orient="auto" markerUnits="strokeWidth"><path d="M0,0 L0,6 L9,3 z" fill="#4b342d"/></marker>
  </defs>
  <rect width="1200" height="680" fill="#fff5ea"/>
  <path d="M0,615 Q260,560 520,615 T1040,615 T1300,615 V680 H0 Z" fill="#cf663f" opacity="0.09"/>
  <text x="65" y="64" fill="#4b342d" font-family="system-ui, PingFang SC, Noto Sans CJK SC, sans-serif" font-size="30" font-weight="750">过程图</text>
  <text x="1135" y="64" text-anchor="end" fill="#4b342d" opacity="0.72" font-family="system-ui, PingFang SC, Noto Sans CJK SC, sans-serif" font-size="21">示意图 · 不按比例</text>
  <rect x="77.5" y="140.0" width="265" height="390" rx="8" fill="#ffffff" stroke="#4b342d" stroke-width="2.5"/><rect x="164.76" y="243.84" width="90.48" height="112.32000000000001" rx="10.92" fill="#cf663f" stroke="#4b342d" stroke-width="3.9000000000000004"/><rect x="192.84" y="229.01999999999998" width="34.32" height="15.600000000000001" rx="3.12" fill="#397e8d" stroke="#4b342d" stroke-width="2.34"/><text x="210" y="440" text-anchor="middle" fill="#4b342d" font-family="system-ui, PingFang SC, Noto Sans CJK SC, sans-serif" font-size="26" font-weight="650"><tspan x="210" dy="0">电池提供电势差</tspan></text><rect x="467.5" y="140.0" width="265" height="390" rx="8" fill="#ffffff" stroke="#4b342d" stroke-width="2.5"/><path d="M545.4,257.1 H654.6 V342.9 H545.4 Z" fill="none" stroke="#4b342d" stroke-width="5.46" stroke-linecap="round" stroke-linejoin="round"/><circle cx="654.6" cy="300" r="15.600000000000001" fill="#397e8d" stroke="#4b342d" stroke-width="2.34"/><text x="600" y="440" text-anchor="middle" fill="#4b342d" font-family="system-ui, PingFang SC, Noto Sans CJK SC, sans-serif" font-size="26" font-weight="650"><tspan x="600" dy="0">导线形成闭合路径</tspan></text><rect x="857.5" y="140.0" width="265" height="390" rx="8" fill="#ffffff" stroke="#4b342d" stroke-width="2.5"/><circle cx="990" cy="282.84" r="40.56" fill="#397e8d" stroke="#4b342d" stroke-width="3.9000000000000004"/><rect x="965.04" y="319.5" width="49.92" height="28.080000000000002" rx="6.24" fill="#cf663f" stroke="#4b342d" stroke-width="3.12"/><line x1="955.8306938689128" y1="236.03277038643074" x2="942.2634693756871" y2="219.92519392221942" stroke="#397e8d" stroke-width="4.68" stroke-linecap="round"/><line x1="990.0" y1="223.56000000000003" x2="990.0" y2="202.5" stroke="#397e8d" stroke-width="4.68" stroke-linecap="round"/><line x1="1024.169306131087" y1="236.03277038643074" x2="1037.736530624313" y2="219.92519392221942" stroke="#397e8d" stroke-width="4.68" stroke-linecap="round"/><text x="990" y="440" text-anchor="middle" fill="#4b342d" font-family="system-ui, PingFang SC, Noto Sans CJK SC, sans-serif" font-size="26" font-weight="650"><tspan x="990" dy="0">灯把电能变</tspan><tspan x="990" dy="34">成光和热</tspan></text><line x1="352" y1="335" x2="452" y2="335" stroke="#cf663f" stroke-width="9" stroke-linecap="round" marker-end="url(#arrow)"/><line x1="742" y1="335" x2="842" y2="335" stroke="#397e8d" stroke-width="9" stroke-linecap="round" marker-end="url(#arrow)"/>
  <rect x="12" y="12" width="1176" height="656" rx="8" fill="none" stroke="#4b342d" stroke-width="3" opacity="0.22"/>
</svg>
