<svg xmlns="http://www.w3.org/2000/svg" width="960" height="540" viewBox="0 0 960 540" role="img" aria-labelledby="title desc">
  <title id="title">月亮自己会发光吗？</title>
  <desc id="desc">围绕“月亮自己会发光吗？”绘制的清晰主题图；具体对象优先，必要关系用箭头表示。</desc>
  <defs>
    <marker id="arrow" markerWidth="10" markerHeight="10" refX="8" refY="3" orient="auto" markerUnits="strokeWidth"><path d="M0,0 L0,6 L9,3 z" fill="#17213A"/></marker>
  </defs>
  <rect width="960" height="540" fill="#F4F9FF"/>
  <path d="M0,455 Q185,410 355,455 T700,455 T1040,455 V540 H0 Z" fill="#2563EB" opacity="0.07"/>

  <g data-question="011" data-layout="earth-weather" data-presentation="earth-weather" data-source="earth-weather" data-icons="earth-weather-plate-011"><text x="54" y="54" fill="#24384A" text-anchor="start" font-family="system-ui, PingFang SC, Noto Sans CJK SC, sans-serif" font-size="26" font-weight="760">月亮不靠自身发可见光；我们看到的是它反射的太阳光</text><rect x="34" y="82" width="892" height="382" rx="4" fill="#273552" stroke="none" stroke-width="0"/><circle cx="150" cy="260" r="50" fill="#E8B642" stroke="#DE753E" stroke-width="4"/><path d="M210.0,260.0 L238.0,260.0" fill="none" stroke="#DE753E" stroke-width="4" stroke-linecap="round" stroke-linejoin="round"/><path d="M201.96152422706632,290.0 L226.2102355330306,304.0" fill="none" stroke="#DE753E" stroke-width="4" stroke-linecap="round" stroke-linejoin="round"/><path d="M180.0,311.9615242270663 L194.0,336.2102355330306" fill="none" stroke="#DE753E" stroke-width="4" stroke-linecap="round" stroke-linejoin="round"/><path d="M150.0,320.0 L150.0,348.0" fill="none" stroke="#DE753E" stroke-width="4" stroke-linecap="round" stroke-linejoin="round"/><path d="M120.00000000000001,311.9615242270663 L106.00000000000001,336.21023553303064" fill="none" stroke="#DE753E" stroke-width="4" stroke-linecap="round" stroke-linejoin="round"/><path d="M98.03847577293368,290.0 L73.78976446696939,304.0" fill="none" stroke="#DE753E" stroke-width="4" stroke-linecap="round" stroke-linejoin="round"/><path d="M90.0,260.0 L62.0,260.0" fill="none" stroke="#DE753E" stroke-width="4" stroke-linecap="round" stroke-linejoin="round"/><path d="M98.03847577293368,230.0 L73.78976446696939,216.00000000000003" fill="none" stroke="#DE753E" stroke-width="4" stroke-linecap="round" stroke-linejoin="round"/><path d="M119.99999999999997,208.03847577293368 L105.99999999999996,183.78976446696942" fill="none" stroke="#DE753E" stroke-width="4" stroke-linecap="round" stroke-linejoin="round"/><path d="M150.0,200.0 L149.99999999999997,172.0" fill="none" stroke="#DE753E" stroke-width="4" stroke-linecap="round" stroke-linejoin="round"/><path d="M180.0,208.03847577293368 L194.0,183.78976446696942" fill="none" stroke="#DE753E" stroke-width="4" stroke-linecap="round" stroke-linejoin="round"/><path d="M201.96152422706632,229.99999999999997 L226.21023553303058,215.99999999999994" fill="none" stroke="#DE753E" stroke-width="4" stroke-linecap="round" stroke-linejoin="round"/><circle cx="650" cy="260" r="90" fill="#F7E9CA" stroke="#24384A" stroke-width="3"/><circle cx="627.5" cy="242.0" r="10.799999999999999" fill="#D5C8AD" stroke="none" stroke-width="0"/><circle cx="669.8" cy="276.2" r="8.1" fill="#D5C8AD" stroke="none" stroke-width="0"/><path d="M210,230 L555,230" fill="none" stroke="#E8B642" stroke-width="6" stroke-linecap="round" stroke-linejoin="round" marker-end="url(#arrow)"/><path d="M590,290 Q470,360 330,320" fill="none" stroke="#F7E9CA" stroke-width="5" stroke-linecap="round" stroke-linejoin="round" marker-end="url(#arrow)"/><path d="M600,230 L608,99" fill="none" stroke="#24384A" stroke-width="2.5" stroke-linecap="round" stroke-linejoin="round"/><circle cx="600" cy="230" r="4.5" fill="#24384A" stroke="none" stroke-width="0"/><text x="620" y="105" fill="#24384A" text-anchor="start" font-family="system-ui, PingFang SC, Noto Sans CJK SC, sans-serif" font-size="19" font-weight="650">太阳照亮月面</text><path d="M475,345 L608,384" fill="none" stroke="#24384A" stroke-width="2.5" stroke-linecap="round" stroke-linejoin="round"/><circle cx="475" cy="345" r="4.5" fill="#24384A" stroke="none" stroke-width="0"/><text x="620" y="390" fill="#24384A" text-anchor="start" font-family="system-ui, PingFang SC, Noto Sans CJK SC, sans-serif" font-size="19" font-weight="650">月面把一小部分光</text><text x="620" y="412" fill="#24384A" text-anchor="start" font-family="system-ui, PingFang SC, Noto Sans CJK SC, sans-serif" font-size="19" font-weight="650">反射到地球和眼睛</text></g>
  <rect x="12" y="12" width="936" height="516" rx="8" fill="none" stroke="#17213A" stroke-width="3" opacity="0.18"/>
</svg>
